<svg width="0" height="0" class="hidden">
  <symbol fill="none" xmlns="http://www.w3.org/2000/svg" viewBox="0 0 32 32" id="angular-icon">
    <path d="M16 2L3 7L5 24L16 30L27 24L29 7L16 2Z" fill="#DD0031"></path>
    <path d="M16 2V30L27 24L29 7L16 2Z" fill="#C3002F"></path>
    <path d="M15.9998 5.09375L7.87305 23.3638H10.9031L12.5368 19.2757H19.4348L21.0685 23.3638H24.0986L15.9998 5.09375ZM18.3736 16.7557H13.626L15.9998 11.0298L18.3736 16.7557Z" fill="white"></path>
  </symbol>
  <symbol fill="none" xmlns="http://www.w3.org/2000/svg" viewBox="0 0 24 24" id="folder-icon">
    <path d="M3 8.2C3 7.07989 3 6.51984 3.21799 6.09202C3.40973 5.71569 3.71569 5.40973 4.09202 5.21799C4.51984 5 5.0799 5 6.2 5H9.67452C10.1637 5 10.4083 5 10.6385 5.05526C10.8425 5.10425 11.0376 5.18506 11.2166 5.29472C11.4184 5.4184 11.5914 5.59135 11.9373 5.93726L12.0627 6.06274C12.4086 6.40865 12.5816 6.5816 12.7834 6.70528C12.9624 6.81494 13.1575 6.89575 13.3615 6.94474C13.5917 7 13.8363 7 14.3255 7H17.8C18.9201 7 19.4802 7 19.908 7.21799C20.2843 7.40973 20.5903 7.71569 20.782 8.09202C21 8.51984 21 9.0799 21 10.2V15.8C21 16.9201 21 17.4802 20.782 17.908C20.5903 18.2843 20.2843 18.5903 19.908 18.782C19.4802 19 18.9201 19 17.8 19H6.2C5.07989 19 4.51984 19 4.09202 18.782C3.71569 18.5903 3.40973 18.2843 3.21799 17.908C3 17.4802 3 16.9201 3 15.8V8.2Z" stroke="#000000" stroke-width="2" stroke-linecap="round" stroke-linejoin="round"></path>
  </symbol>
  <symbol fill="none" xmlns="http://www.w3.org/2000/svg" viewBox="0 0 24 24" id="github-icon">
    <path d="M9.35003 16.88C9.35003 16.95 9.28003 17 9.18003 17C9.08003 17 9.00003 17 9.00003 16.88C9.00003 16.76 9.08003 16.76 9.17003 16.76C9.26003 16.76 9.35003 16.81 9.35003 16.88ZM8.35003 16.73C8.35003 16.8 8.35003 16.88 8.49003 16.9C8.52584 16.9172 8.56701 16.9195 8.6045 16.9064C8.642 16.8933 8.67275 16.8658 8.69003 16.83C8.69003 16.76 8.69003 16.69 8.55003 16.66C8.41003 16.63 8.37003 16.66 8.35003 16.73ZM9.77003 16.68C9.68003 16.68 9.62003 16.76 9.63003 16.84C9.64003 16.92 9.72003 16.95 9.82003 16.93C9.92003 16.91 9.97003 16.84 9.96003 16.77C9.95003 16.7 9.87003 16.67 9.77003 16.68ZM11.9 4.00002C10.8454 3.99009 9.79962 4.19333 8.82547 4.59754C7.85132 5.00175 6.96887 5.5986 6.23107 6.35227C5.49328 7.10594 4.91535 8.0009 4.53197 8.98343C4.14859 9.96597 3.96765 11.0158 4.00003 12.07C3.97211 13.7969 4.48426 15.4894 5.46493 16.9111C6.4456 18.3328 7.84582 19.4127 9.47003 20C9.88003 20.07 10.03 19.81 10.03 19.6C10.03 19.39 10.03 18.26 10.03 17.6C10.03 17.6 7.77003 18.1 7.29003 16.6C7.29003 16.6 6.93003 15.6 6.40003 15.39C6.40003 15.39 5.66003 14.87 6.45003 14.88C6.70877 14.9149 6.95573 15.01 7.17108 15.1576C7.38643 15.3052 7.56417 15.5013 7.69003 15.73C7.79466 15.9351 7.9401 16.1167 8.11742 16.2635C8.29473 16.4104 8.50019 16.5195 8.72118 16.5841C8.94218 16.6487 9.17404 16.6675 9.40255 16.6393C9.63106 16.6111 9.85139 16.5364 10.05 16.42C10.0879 16.0025 10.2679 15.6107 10.56 15.31C8.76003 15.1 6.94003 14.84 6.94003 11.65C6.92091 11.2896 6.97881 10.9293 7.10985 10.5931C7.2409 10.2569 7.44209 9.95241 7.70003 9.70002C7.45667 8.96799 7.48507 8.17282 7.78003 7.46002C8.46003 7.24002 10.01 8.35002 10.01 8.35002C11.3342 7.97655 12.7359 7.97655 14.06 8.35002C14.06 8.35002 15.61 7.24002 16.29 7.46002C16.5914 8.17142 16.6198 8.96894 16.37 9.70002C16.6371 9.94893 16.8489 10.2511 16.9919 10.587C17.1348 10.9229 17.2057 11.285 17.2 11.65C17.2 14.85 15.3 15.1 13.5 15.31C13.6809 15.5129 13.8186 15.7506 13.9046 16.0085C13.9905 16.2664 14.023 16.5391 14 16.81C14 17.93 14 19.31 14 19.58C13.9994 19.6475 14.015 19.7142 14.0456 19.7744C14.0763 19.8346 14.1209 19.8866 14.1759 19.9258C14.2308 19.9651 14.2945 19.9905 14.3613 19.9999C14.4282 20.0094 14.4964 20.0025 14.56 19.98C16.1813 19.3978 17.5786 18.321 18.5547 16.9017C19.5309 15.4824 20.0364 13.7922 20 12.07C20.0094 11.0051 19.8061 9.94902 19.402 8.96371C18.9979 7.9784 18.4011 7.08369 17.6467 6.33205C16.8923 5.58041 15.9953 4.98696 15.0085 4.58651C14.0217 4.18606 12.9649 3.98667 11.9 4.00002ZM7.14003 15.41C7.14003 15.41 7.14003 15.52 7.14003 15.58C7.15118 15.5912 7.16442 15.6001 7.17901 15.6061C7.1936 15.6122 7.20923 15.6153 7.22503 15.6153C7.24082 15.6153 7.25646 15.6122 7.27105 15.6061C7.28563 15.6001 7.29888 15.5912 7.31003 15.58C7.31003 15.58 7.31003 15.47 7.31003 15.4C7.31003 15.33 7.18003 15.37 7.14003 15.41ZM6.79003 15.14C6.79003 15.14 6.79003 15.24 6.86003 15.27C6.86846 15.2805 6.87913 15.2889 6.89124 15.2947C6.90335 15.3004 6.91661 15.3035 6.93003 15.3035C6.94345 15.3035 6.9567 15.3004 6.96881 15.2947C6.98093 15.2889 6.99159 15.2805 7.00003 15.27C7.00003 15.27 7.00003 15.17 6.93003 15.14C6.86003 15.11 6.81003 15.11 6.79003 15.14ZM7.79003 16.32C7.79003 16.32 7.79003 16.46 7.79003 16.53C7.79003 16.6 7.96003 16.61 8.00003 16.53C8.04003 16.45 8.00003 16.39 8.00003 16.32C8.00003 16.25 7.87003 16.27 7.83003 16.32H7.79003ZM7.42003 15.83C7.42003 15.83 7.42003 15.95 7.42003 16.03C7.42003 16.11 7.56003 16.14 7.61003 16.11C7.63535 16.0809 7.6493 16.0436 7.6493 16.005C7.6493 15.9664 7.63535 15.9291 7.61003 15.9C7.56003 15.82 7.48003 15.79 7.42003 15.83Z" fill="#000000"></path>
  </symbol>
  <symbol xmlns="http://www.w3.org/2000/svg" aria-label="JavaScript" role="img" viewBox="0 0 512 512" id="javascript-icon">
    <rect width="512" height="512" rx="15%" fill="#f7df1e"></rect>
    <path d="M324 370c10 17 24 29 47 29c20 0 33-10 33 -24c0-16 -13 -22 -35 -32l-12-5c-35-15 -58 -33 -58 -72c0-36 27 -64 70 -64c31 0 53 11 68 39l-37 24c-8-15 -17 -21 -31 -21c-14 0-23 9 -23 21c0 14 9 20 30 29l12 5c41 18 64 35 64 76c0 43-34 67 -80 67c-45 0-74 -21 -88 -49zm-170 4c8 13 14 25 31 25c16 0 26-6 26 -30V203h48v164c0 50-29 72 -72 72c-39 0-61 -20 -72 -44z"></path>
  </symbol>
  <symbol fill="none" xmlns="http://www.w3.org/2000/svg" viewBox="0 0 32 32" id="react-icon">
    <path d="M18.6789 15.9759C18.6789 14.5415 17.4796 13.3785 16 13.3785C14.5206 13.3785 13.3211 14.5415 13.3211 15.9759C13.3211 17.4105 14.5206 18.5734 16 18.5734C17.4796 18.5734 18.6789 17.4105 18.6789 15.9759Z" fill="#53C1DE"></path>
    <path fill-rule="evenodd" clip-rule="evenodd" d="M24.7004 11.1537C25.2661 8.92478 25.9772 4.79148 23.4704 3.39016C20.9753 1.99495 17.7284 4.66843 16.0139 6.27318C14.3044 4.68442 10.9663 2.02237 8.46163 3.42814C5.96751 4.82803 6.73664 8.8928 7.3149 11.1357C4.98831 11.7764 1 13.1564 1 15.9759C1 18.7874 4.98416 20.2888 7.29698 20.9289C6.71658 23.1842 5.98596 27.1909 8.48327 28.5877C10.9973 29.9932 14.325 27.3945 16.0554 25.7722C17.7809 27.3864 20.9966 30.0021 23.4922 28.6014C25.9956 27.1963 25.3436 23.1184 24.7653 20.8625C27.0073 20.221 31 18.7523 31 15.9759C31 13.1835 26.9903 11.7923 24.7004 11.1537ZM24.4162 19.667C24.0365 18.5016 23.524 17.2623 22.8971 15.9821C23.4955 14.7321 23.9881 13.5088 24.3572 12.3509C26.0359 12.8228 29.7185 13.9013 29.7185 15.9759C29.7185 18.07 26.1846 19.1587 24.4162 19.667ZM22.85 27.526C20.988 28.571 18.2221 26.0696 16.9478 24.8809C17.7932 23.9844 18.638 22.9422 19.4625 21.7849C20.9129 21.6602 22.283 21.4562 23.5256 21.1777C23.9326 22.7734 24.7202 26.4763 22.85 27.526ZM9.12362 27.5111C7.26143 26.47 8.11258 22.8946 8.53957 21.2333C9.76834 21.4969 11.1286 21.6865 12.5824 21.8008C13.4123 22.9332 14.2816 23.9741 15.1576 24.8857C14.0753 25.9008 10.9945 28.557 9.12362 27.5111ZM2.28149 15.9759C2.28149 13.874 5.94207 12.8033 7.65904 12.3326C8.03451 13.5165 8.52695 14.7544 9.12123 16.0062C8.51925 17.2766 8.01977 18.5341 7.64085 19.732C6.00369 19.2776 2.28149 18.0791 2.28149 15.9759ZM9.1037 4.50354C10.9735 3.45416 13.8747 6.00983 15.1159 7.16013C14.2444 8.06754 13.3831 9.1006 12.5603 10.2265C11.1494 10.3533 9.79875 10.5569 8.55709 10.8297C8.09125 9.02071 7.23592 5.55179 9.1037 4.50354ZM20.3793 11.5771C21.3365 11.6942 22.2536 11.85 23.1147 12.0406C22.8562 12.844 22.534 13.6841 22.1545 14.5453C21.6044 13.5333 21.0139 12.5416 20.3793 11.5771ZM16.0143 8.0481C16.6054 8.66897 17.1974 9.3623 17.7798 10.1145C16.5985 10.0603 15.4153 10.0601 14.234 10.1137C14.8169 9.36848 15.414 8.67618 16.0143 8.0481ZM9.8565 14.5444C9.48329 13.6862 9.16398 12.8424 8.90322 12.0275C9.75918 11.8418 10.672 11.69 11.623 11.5748C10.9866 12.5372 10.3971 13.5285 9.8565 14.5444ZM11.6503 20.4657C10.6679 20.3594 9.74126 20.2153 8.88556 20.0347C9.15044 19.2055 9.47678 18.3435 9.85796 17.4668C10.406 18.4933 11.0045 19.4942 11.6503 20.4657ZM16.0498 23.9915C15.4424 23.356 14.8365 22.6531 14.2448 21.8971C15.4328 21.9423 16.6231 21.9424 17.811 21.891C17.2268 22.6608 16.6369 23.3647 16.0498 23.9915ZM22.1667 17.4222C22.5677 18.3084 22.9057 19.1657 23.1742 19.9809C22.3043 20.1734 21.3652 20.3284 20.3757 20.4435C21.015 19.4607 21.6149 18.4536 22.1667 17.4222ZM18.7473 20.5941C16.9301 20.72 15.1016 20.7186 13.2838 20.6044C12.2509 19.1415 11.3314 17.603 10.5377 16.0058C11.3276 14.4119 12.2404 12.8764 13.2684 11.4158C15.0875 11.2825 16.9178 11.2821 18.7369 11.4166C19.7561 12.8771 20.6675 14.4086 21.4757 15.9881C20.6771 17.5812 19.7595 19.1198 18.7473 20.5941ZM22.8303 4.4666C24.7006 5.51254 23.8681 9.22726 23.4595 10.8426C22.2149 10.5641 20.8633 10.3569 19.4483 10.2281C18.6239 9.09004 17.7698 8.05518 16.9124 7.15949C18.1695 5.98441 20.9781 3.43089 22.8303 4.4666Z" fill="#53C1DE"></path>
  </symbol>
  <symbol xmlns="http://www.w3.org/2000/svg" aria-label="TypeScript" role="img" viewBox="0 0 512 512" id="typescript-icon">
    <rect width="512" height="512" rx="15%" fill="#3178c6"></rect>
    <path fill="#ffffff" d="m233 284h64v-41H118v41h64v183h51zm84 173c8.1 4.2 18 7.3 29 9.4s23 3.1 35 3.1c12 0 23-1.1 34-3.4c11-2.3 20-6.1 28-11c8.1-5.3 15-12 19-21s7.1-19 7.1-32c0-9.1-1.4-17-4.1-24s-6.6-13-12-18c-5.1-5.3-11-10-18-14s-15-8.2-24-12c-6.6-2.7-12-5.3-18-7.9c-5.2-2.6-9.7-5.2-13-7.8c-3.7-2.7-6.5-5.5-8.5-8.4c-2-3-3-6.3-3-10c0-3.4.89-6.5 2.7-9.3s4.3-5.1 7.5-7.1c3.2-2 7.2-3.5 12-4.6c4.7-1.1 9.9-1.6 16-1.6c4.2 0 8.6.31 13 .94c4.6.63 9.3 1.6 14 2.9c4.7 1.3 9.3 2.9 14 4.9c4.4 2 8.5 4.3 12 6.9v-47c-7.6-2.9-16-5.1-25-6.5s-19-2.1-31-2.1c-12 0-23 1.3-34 3.8s-20 6.5-28 12c-8.1 5.4-14 12-19 21c-4.7 8.4-7 18-7 30c0 15 4.3 28 13 38c8.6 11 22 19 39 27c6.9 2.8 13 5.6 19 8.3s11 5.5 15 8.4c4.3 2.9 7.7 6.1 10 9.5c2.5 3.4 3.8 7.4 3.8 12c0 3.2-.78 6.2-2.3 9s-3.9 5.2-7.1 7.2s-7.1 3.6-12 4.8c-4.7 1.1-10 1.7-17 1.7c-11 0-22-1.9-32-5.7c-11-3.8-21-9.5-28.1-15.44z"></path>
  </symbol>
</svg>